# xmcd
#
# Track frame offsets:
#	150
#	11012
#	25993
#	40896
#	55309
#	70308
#	78459
#	94269
#	109249
#	132536
#	144889
#	168601
#	184841
#	197410
#	212735
#	229159
#	253554
#	267140
#
# Disc length: 3706 seconds
#
# Revision: 1
# Processed by: cddbd v1.5.2PL0 Copyright (c) Steve Scherf et al.
# Submitted via: audiograbber 1.83.01
#
DISCID=030e7812
DTITLE=Sonny Terry and Brownie McGhee - I Shall Not Be Moved [CD1]
DYEAR=1948
DGENRE=Blues
TTITLE0=Pick a Bale of Cotton
TTITLE1=Raise a Ruckus Tonight
TTITLE2=Crawdad Hole
TTITLE3=When the Saints Go Marching In
TTITLE4=C.C. Rider
TTITLE5=Bad, Bad Whiskey
TTITLE6=Jelly Roll
TTITLE7=Worried Life Blues
TTITLE8=Find My Way Home
TTITLE9=Key to the Highway
TTITLE10=Betty and Dupree
TTITLE11=I'm Goin' Down Slow
TTITLE12=Careless Love
TTITLE13=Change the Locks on My Door
TTITLE14=In the Evening
TTITLE15=Midnight Special
TTITLE16=Dirty Mistreater
TTITLE17=What a Beauitful City
EXTD=
EXTT0=
EXTT1=
EXTT2=
EXTT3=
EXTT4=
EXTT5=
EXTT6=
EXTT7=
EXTT8=
EXTT9=
EXTT10=
EXTT11=
EXTT12=
EXTT13=
EXTT14=
EXTT15=
EXTT16=
EXTT17=
PLAYORDER=
